<svg width="128" height="128" viewBox="0 0 128 128" fill="none" xmlns="http://www.w3.org/2000/svg">
<rect y="0.12001" width="128" height="128" rx="20.48" fill="#D11B1B"/>
<path d="M21.4829 67C21.308 67 21.0207 67 20.6209 67C20.2212 67.025 19.7964 67.0375 19.3467 67.0375C18.897 67.0375 18.4723 67.0375 18.0725 67.0375C17.6728 67.0625 17.398 67.075 17.2481 67.075C17.2481 67.0999 17.1606 67.1374 16.9857 67.1874C16.8108 67.2623 16.6734 67.2998 16.5735 67.2998C16.4985 67.2998 16.3486 67.2873 16.1238 67.2623C15.8989 67.2373 15.6616 67.2124 15.4117 67.1874C15.1619 67.1624 14.9245 67.1374 14.6997 67.1124C14.4748 67.0874 14.3374 67.075 14.2874 67.075C13.9876 67.075 13.7003 67.075 13.4255 67.075C13.1756 67.0999 12.9383 67.1124 12.7134 67.1124C12.4136 67.1124 12.1388 67.075 11.8889 67C11.6641 66.9001 11.4392 66.6877 11.2144 66.3629C11.1394 66.3629 11.077 66.2755 11.027 66.1006L10.952 65.8757C11.027 65.6758 11.1519 65.5384 11.3268 65.4635C11.5017 65.3635 11.6891 65.3011 11.8889 65.2761C12.1138 65.2261 12.3387 65.1886 12.5635 65.1637C12.7884 65.1137 12.9758 65.0387 13.1257 64.9388H15.9364C16.0113 64.9388 16.1238 64.8763 16.2737 64.7514C16.4236 64.6265 16.5235 64.5391 16.5735 64.4891C17.4729 64.589 18.2099 64.5391 18.7846 64.3392C19.3842 64.1393 19.8714 63.8395 20.2462 63.4398C20.6209 63.015 20.9082 62.5153 21.1081 61.9407C21.308 61.3661 21.4454 60.754 21.5204 60.1044C21.6203 59.4548 21.6828 58.7927 21.7077 58.1181C21.7327 57.4435 21.7577 56.794 21.7827 56.1694C21.8077 56.0944 21.8327 55.9445 21.8576 55.7196C21.8826 55.4948 21.8951 55.2574 21.8951 55.0076C21.9201 54.7328 21.9451 54.4829 21.9701 54.2581C21.9951 54.0082 22.02 53.8458 22.045 53.7709V53.3212C22.045 52.5716 21.9576 51.8221 21.7827 51.0726C21.6328 50.3231 21.5578 49.5485 21.5578 48.749V48.1869C21.5578 48.1119 21.5703 47.9496 21.5953 47.6997C21.6203 47.4499 21.6453 47.175 21.6703 46.8752C21.6952 46.5754 21.7202 46.3006 21.7452 46.0508C21.7702 45.8009 21.7827 45.651 21.7827 45.601V44.6641V42.2656C21.8327 42.1657 21.9076 41.9658 22.0075 41.666C22.1075 41.3662 22.2074 41.1913 22.3074 41.1414V35.4075C22.6571 34.4831 22.832 33.5212 22.832 32.5218C22.832 31.4975 22.882 30.4981 22.9819 29.5237C22.9819 29.4987 23.0069 29.3863 23.0569 29.1864C23.1318 28.9865 23.1943 28.8491 23.2443 28.7742C23.2443 28.6742 23.2443 28.4619 23.2443 28.1371C23.2692 27.7873 23.2817 27.4125 23.2817 27.0128C23.3067 26.6131 23.3317 26.2508 23.3567 25.926C23.3817 25.5762 23.4067 25.3513 23.4316 25.2514C23.5316 24.4269 23.6815 23.6524 23.8814 22.9279C24.0812 22.1784 24.1812 21.4038 24.1812 20.6044C24.1812 19.6799 24.0937 18.8929 23.9188 18.2433C23.7689 17.5938 23.4566 16.8692 22.9819 16.0697C22.7321 15.62 22.3948 15.1953 21.9701 14.7955C21.5453 14.3708 21.0831 14.0835 20.5834 13.9336C20.5085 13.9086 20.3836 13.8711 20.2087 13.8211C20.0588 13.7712 19.8964 13.7337 19.7215 13.7087C19.5466 13.6587 19.3842 13.6213 19.2343 13.5963C19.0844 13.5463 18.997 13.5088 18.972 13.4839C18.6971 13.4339 18.3224 13.3964 17.8477 13.3714C17.398 13.3215 16.9482 13.234 16.4985 13.1091C16.0738 12.9842 15.699 12.7968 15.3742 12.547C15.0494 12.2971 14.8871 11.9348 14.8871 11.4601V11.2728C14.8871 11.2228 14.8995 11.1603 14.9245 11.0854C14.9745 11.0854 15.1244 11.0479 15.3742 10.9729C15.6241 10.873 15.8115 10.823 15.9364 10.823H17.8852H20.1712C20.3211 10.823 20.6084 10.8355 21.0332 10.8605C21.4579 10.8855 21.9076 10.923 22.3823 10.9729C22.882 10.9979 23.3442 11.0229 23.7689 11.0479C24.1937 11.0729 24.481 11.0854 24.6309 11.0854C24.7308 11.1353 24.9557 11.1978 25.3055 11.2728C25.6552 11.3227 25.9176 11.3477 26.0925 11.3477C26.1174 11.3477 26.2174 11.3977 26.3923 11.4976C26.5921 11.5726 26.7171 11.61 26.767 11.61C26.792 11.61 26.8545 11.5976 26.9544 11.5726C27.0793 11.5476 27.2167 11.5226 27.3667 11.4976C27.5166 11.4476 27.6415 11.4102 27.7414 11.3852C27.8663 11.3602 27.9413 11.3477 27.9663 11.3477H28.0787H28.416C28.5409 11.3477 28.7408 11.3602 29.0156 11.3852C29.3154 11.3852 29.6277 11.3977 29.9525 11.4227C30.2773 11.4476 30.5771 11.4851 30.8519 11.5351C31.1518 11.5601 31.3641 11.5851 31.489 11.61C31.9887 12.0098 32.401 12.472 32.7258 12.9967C33.0506 13.5213 33.3254 14.0835 33.5502 14.6831C33.7751 15.2577 33.975 15.8574 34.1499 16.482C34.3248 17.0816 34.5246 17.6562 34.7495 18.2059C35.6489 20.3295 36.5858 22.4157 37.5602 24.4644C38.5346 26.5131 39.4965 28.5618 40.4459 30.6105C40.8706 31.5349 41.2953 32.5093 41.7201 33.5337C42.1448 34.558 42.5196 35.5199 42.8444 36.4193C42.8444 36.4193 42.8569 36.4943 42.8818 36.6442C42.9318 36.7941 42.9818 36.969 43.0317 37.1689C43.0817 37.3438 43.1317 37.5187 43.1816 37.6935C43.2316 37.8684 43.2566 37.9684 43.2566 37.9934C43.3316 38.0933 43.469 38.2682 43.6688 38.518C43.8687 38.7429 43.9811 38.8803 44.0061 38.9303C44.0061 38.9802 44.0311 39.0677 44.0811 39.1926C44.156 39.2925 44.2185 39.3675 44.2685 39.4175C44.5933 40.2919 44.9181 41.1663 45.2428 42.0408C45.5676 42.9152 45.9174 43.7897 46.2922 44.6641C46.3421 44.7141 46.4171 44.814 46.517 44.9639C46.617 45.1138 46.7169 45.2887 46.8168 45.4886C46.9168 45.6635 47.0042 45.8259 47.0792 45.9758C47.1541 46.1257 47.2041 46.2256 47.2291 46.2756C47.304 46.3755 47.3915 46.5754 47.4914 46.8752C47.5914 47.175 47.7163 47.4873 47.8662 47.8121C48.0161 48.1119 48.1785 48.3743 48.3534 48.5991C48.5283 48.824 48.7156 48.9114 48.9155 48.8615C48.9905 48.8115 49.0779 48.7366 49.1779 48.6366C49.3028 48.5367 49.3902 48.4617 49.4402 48.4118V47.9246V47.7372C49.69 47.0376 49.9898 46.4005 50.3396 45.8259C50.6894 45.2513 51.0017 44.6017 51.2765 43.8771C51.3015 43.8521 51.3265 43.7897 51.3515 43.6897C51.3765 43.5648 51.4014 43.4399 51.4264 43.315C51.4514 43.1651 51.4639 43.0402 51.4639 42.9402C51.4889 42.8403 51.5014 42.7778 51.5014 42.7528C51.5514 42.6529 51.6638 42.453 51.8387 42.1532C52.0385 41.8284 52.1635 41.6286 52.2134 41.5536C52.2634 41.5036 52.3259 41.4037 52.4008 41.2538C52.4758 41.0789 52.5507 40.904 52.6257 40.7291C52.7006 40.5542 52.7756 40.3918 52.8505 40.2419C52.9255 40.092 52.9879 39.9921 53.0379 39.9421C53.0379 39.8672 53.0754 39.6923 53.1503 39.4175C53.2503 39.1176 53.3502 38.8053 53.4502 38.4805C53.5751 38.1557 53.675 37.8559 53.75 37.5811C53.8499 37.2813 53.8999 37.0939 53.8999 37.019C53.9498 36.994 54.0248 36.8691 54.1247 36.6442C54.2247 36.4193 54.2996 36.257 54.3496 36.157C55.299 34.658 56.0985 33.084 56.7481 31.435C57.3977 29.786 58.0223 28.1246 58.6219 26.4507C58.6718 26.3257 58.7468 26.1134 58.8467 25.8136C58.9467 25.5137 59.0216 25.3264 59.0716 25.2514C59.0966 25.2014 59.1465 25.114 59.2215 24.9891C59.2965 24.8392 59.3714 24.6893 59.4464 24.5394C59.5213 24.3895 59.5963 24.252 59.6712 24.1271C59.7462 23.9772 59.7961 23.8773 59.8211 23.8273C59.8211 23.7773 59.8586 23.6274 59.9336 23.3776C60.0335 23.1278 60.0835 22.9529 60.0835 22.8529C60.1584 22.6281 60.2583 22.4157 60.3833 22.2158C60.5332 21.991 60.6956 21.7786 60.8705 21.5787C61.0453 21.3789 61.1953 21.179 61.3202 20.9791C61.4701 20.7543 61.5825 20.5169 61.6575 20.2671C61.9823 19.3676 62.2946 18.4432 62.5944 17.4938C62.8942 16.5444 63.2315 15.6075 63.6062 14.6831C63.7062 14.3583 63.7811 14.0335 63.8311 13.7087C63.906 13.3839 63.981 13.0841 64.0559 12.8093C64.1559 12.5095 64.2808 12.2471 64.4307 12.0223C64.6056 11.7724 64.8554 11.5476 65.1802 11.3477C65.505 11.3477 66.0047 11.3352 66.6793 11.3102C67.3788 11.2603 68.1534 11.2103 69.0028 11.1603C69.8773 11.1104 70.7767 11.0604 71.7011 11.0104C72.6505 10.9355 73.5499 10.873 74.3994 10.823C75.2738 10.7731 76.0484 10.7356 76.7229 10.7106C77.3975 10.6856 77.8972 10.6606 78.222 10.6357H79.5337H80.3956C80.7454 10.6357 81.0577 10.6856 81.3325 10.7856C81.6323 10.8605 81.7822 11.0729 81.7822 11.4227C81.7822 11.9473 81.6448 12.3471 81.37 12.6219C81.1201 12.8967 80.8078 13.0966 80.4331 13.2215C80.0583 13.3215 79.6461 13.3839 79.1964 13.4089C78.7716 13.4089 78.3844 13.4339 78.0346 13.4839C77.8347 13.7587 77.5599 13.9336 77.2101 14.0085C76.8603 14.0835 76.4856 14.1834 76.0858 14.3083C75.6861 14.4083 75.2738 14.5832 74.8491 14.833C74.4244 15.0579 74.0496 15.4701 73.7248 16.0697C73.6749 16.1946 73.5749 16.3695 73.425 16.5944C73.3001 16.8192 73.2376 16.9567 73.2376 17.0066V25.5137C73.1377 25.9884 73.0752 26.3632 73.0503 26.638C73.0503 26.8879 73.0503 27.2252 73.0503 27.6499V28.3245C73.0503 28.3994 73.0627 28.5618 73.0877 28.8117C73.1127 29.0615 73.1252 29.3363 73.1252 29.6361C73.1502 29.911 73.1752 30.1733 73.2002 30.4231C73.2251 30.673 73.2376 30.8354 73.2376 30.9103C73.2376 31.1102 73.2251 31.5849 73.2002 32.3344C73.1752 33.059 73.1502 33.846 73.1252 34.6954C73.1252 35.5449 73.1127 36.3444 73.0877 37.0939C73.0627 37.8434 73.0503 38.3306 73.0503 38.5555V51.185C73.0503 51.3099 73.0378 51.5972 73.0128 52.047C72.9878 52.4717 72.9503 52.9464 72.9003 53.4711C72.8754 53.9707 72.8504 54.4454 72.8254 54.8952C72.8004 55.3449 72.7879 55.6197 72.7879 55.7196V56.7315V57.6309C72.7879 57.7309 72.7879 57.9432 72.7879 58.268C72.8129 58.5928 72.8379 58.9426 72.8629 59.3174C72.8879 59.6921 72.9128 60.0544 72.9378 60.4042C72.9878 60.754 73.0253 61.0038 73.0503 61.1537C73.0503 61.2536 73.0627 61.4035 73.0877 61.6034C73.1127 61.7783 73.1252 61.9657 73.1252 62.1656C73.1502 62.3654 73.1752 62.5528 73.2002 62.7277C73.2251 62.8776 73.2376 62.9775 73.2376 63.0275C73.3126 63.3523 73.475 63.6271 73.7248 63.852C73.9997 64.0768 74.2995 64.2767 74.6243 64.4516C74.974 64.6015 75.3238 64.7139 75.6736 64.7889C76.0484 64.8639 76.3482 64.9138 76.573 64.9388C76.673 64.9638 76.8478 64.9888 77.0977 65.0138C77.3475 65.0387 77.6349 65.0512 77.9596 65.0512C78.2345 65.0512 78.5093 65.0387 78.7841 65.0138C79.0839 64.9888 79.2963 64.9638 79.4212 64.9388C79.5461 65.0637 79.7335 65.2511 79.9834 65.5009C80.2332 65.7258 80.3581 65.9507 80.3581 66.1755C80.3581 66.4004 80.2707 66.6127 80.0958 66.8126C79.9209 67.0125 79.7585 67.1749 79.6086 67.2998H77.0227H74.4369C74.4119 67.2998 74.312 67.2873 74.1371 67.2623C73.9872 67.2373 73.8123 67.2124 73.6124 67.1874C73.4375 67.1624 73.2626 67.1374 73.0877 67.1124C72.9128 67.0874 72.8129 67.075 72.7879 67.075H71.851H69.4525C69.4026 67.075 69.2776 67.0375 69.0778 66.9625C68.9029 66.8876 68.8029 66.8126 68.778 66.7377H68.5906H68.2533C68.1783 66.7876 67.966 66.8501 67.6162 66.925C67.2914 66.975 66.9291 67.025 66.5294 67.075C66.1296 67.1249 65.7549 67.1749 65.4051 67.2249C65.0803 67.2748 64.8804 67.2998 64.8055 67.2998H61.0953H57.4226C57.1728 67.2998 56.9479 67.2249 56.7481 67.075C56.5732 66.925 56.4857 66.7127 56.4857 66.4379C56.4857 66.1131 56.6356 65.8632 56.9354 65.6883C57.2353 65.4885 57.6225 65.3261 58.0972 65.2011C58.5969 65.0762 59.1341 64.9638 59.7087 64.8639C60.2833 64.7639 60.8455 64.6515 61.3951 64.5266C61.9448 64.4016 62.4445 64.2392 62.8942 64.0394C63.3439 63.8395 63.6687 63.5897 63.8686 63.2898C64.0185 63.015 64.1184 62.7527 64.1684 62.5028C64.2183 62.228 64.2433 61.9657 64.2433 61.7158V60.4416C64.2433 60.4167 64.2808 60.3042 64.3558 60.1044C64.4307 59.8795 64.4682 59.7421 64.4682 59.6921C64.5182 59.6422 64.5431 59.5047 64.5431 59.2799C64.5431 59.055 64.5431 58.8552 64.5431 58.6803C64.5431 58.5304 64.5431 58.3305 64.5431 58.0806C64.5431 57.8058 64.5182 57.6559 64.4682 57.6309C64.4682 57.556 64.4307 57.4061 64.3558 57.1812C64.2808 56.9314 64.2433 56.7815 64.2433 56.7315C64.2433 56.6316 64.2808 56.4567 64.3558 56.2068C64.4307 55.932 64.4682 55.7696 64.4682 55.7196C64.5182 55.7196 64.5431 55.6322 64.5431 55.4573C64.5431 55.2824 64.5431 55.145 64.5431 55.0451C64.5431 54.5454 64.4932 54.0582 64.3932 53.5835C64.2933 53.0838 64.2433 52.5591 64.2433 52.0095V51.9345C64.2933 51.9345 64.3433 51.8596 64.3932 51.7097C64.4182 51.6347 64.4432 51.5723 64.4682 51.5223C64.4682 50.8477 64.4807 50.2231 64.5057 49.6485C64.5306 49.0489 64.5681 48.4742 64.6181 47.9246C64.6681 47.3499 64.7055 46.7753 64.7305 46.2007C64.7805 45.626 64.8055 45.0014 64.8055 44.3268C64.8055 42.1782 64.7305 40.092 64.5806 38.0683C64.4557 36.0446 64.3433 33.9584 64.2433 31.8098C64.2433 31.7098 64.2433 31.4975 64.2433 31.1727C64.2433 30.8479 64.2433 30.4606 64.2433 30.0109C64.2683 29.5612 64.2808 29.074 64.2808 28.5493C64.2808 28.0247 64.2808 27.5375 64.2808 27.0878C64.2808 26.638 64.2808 26.2508 64.2808 25.926C64.2808 25.5762 64.2683 25.3513 64.2433 25.2514C64.2433 25.1515 64.2183 24.9266 64.1684 24.5768C64.1184 24.2021 64.0809 23.9522 64.0559 23.8273C64.031 23.8023 64.006 23.7649 63.981 23.7149L63.8686 23.6025H63.6812H63.6062C63.4064 23.7274 63.2689 23.8523 63.194 23.9772C63.119 24.1021 63.0566 24.2396 63.0066 24.3895C62.9816 24.5144 62.9441 24.6768 62.8942 24.8767C62.8692 25.0515 62.7942 25.2639 62.6693 25.5137C62.6443 25.5387 62.5944 25.6012 62.5194 25.7011C62.4445 25.7761 62.357 25.876 62.2571 26.0009C62.1821 26.1009 62.1072 26.2008 62.0322 26.3007C61.9573 26.3757 61.9198 26.4257 61.9198 26.4507C61.4951 27.1502 61.1828 27.8872 60.9829 28.6618C60.783 29.4363 60.5457 30.1858 60.2708 30.9103C59.9211 31.7848 59.5338 32.7467 59.1091 33.796C58.7093 34.8453 58.2971 35.7823 57.8724 36.6067C57.8724 36.6317 57.8349 36.7067 57.7599 36.8316C57.71 36.9315 57.6475 37.0564 57.5725 37.2063C57.4976 37.3313 57.4226 37.4437 57.3477 37.5436C57.2977 37.6436 57.2602 37.706 57.2353 37.731C57.1853 37.781 57.1353 37.9559 57.0854 38.2557C57.0354 38.5555 57.0104 38.7304 57.0104 38.7804C56.9604 38.8303 56.873 38.9428 56.7481 39.1176C56.6231 39.2675 56.5357 39.3675 56.4857 39.4175C56.4358 39.4924 56.3733 39.5923 56.2984 39.7173C56.2484 39.8172 56.2234 39.8922 56.2234 39.9421C56.2234 39.9671 56.2109 40.0421 56.1859 40.167C56.1859 40.2669 56.1734 40.3918 56.1484 40.5417C56.1235 40.6667 56.0985 40.7916 56.0735 40.9165C56.0735 41.0414 56.061 41.1164 56.036 41.1414C55.9361 41.1913 55.8486 41.2413 55.7737 41.2913C55.6238 41.3912 55.5488 41.4786 55.5488 41.5536C55.4989 41.6036 55.4614 41.766 55.4364 42.0408C55.4114 42.2906 55.3614 42.4405 55.2865 42.4905C55.2865 42.5405 55.274 42.6029 55.249 42.6779C55.224 42.7528 55.199 42.8278 55.1741 42.9027L55.0991 43.2026C55.0491 43.2525 54.9117 43.3774 54.6869 43.5773C54.462 43.7522 54.3496 43.8521 54.3496 43.8771C54.3246 43.9271 54.2996 44.027 54.2746 44.1769C54.2746 44.3019 54.2621 44.4518 54.2372 44.6267C54.2122 44.7766 54.1872 44.9265 54.1622 45.0764C54.1372 45.2013 54.1122 45.2887 54.0872 45.3387C53.8624 46.0383 53.5251 46.7378 53.0754 47.4374C52.6257 48.1369 52.2759 48.8615 52.0261 49.611C51.6013 50.8602 51.1391 52.0969 50.6394 53.3212C50.1397 54.5454 49.5651 55.7321 48.9155 56.8814L46.592 64.4891C46.567 64.5391 46.4546 64.664 46.2547 64.8639C46.0798 65.0387 45.9674 65.1387 45.9174 65.1637C45.8175 65.1637 45.6801 65.1137 45.5052 65.0138C45.3303 64.8888 45.1929 64.8014 45.0929 64.7514C44.8181 64.3767 44.6057 63.9894 44.4558 63.5897C44.3059 63.1649 44.1685 62.7402 44.0436 62.3155C43.9437 61.8907 43.8312 61.466 43.7063 61.0413C43.5814 60.5916 43.4315 60.1418 43.2566 59.6921C42.9818 58.9926 42.682 58.293 42.3572 57.5935C42.0324 56.8939 41.7076 56.2068 41.3828 55.5323C41.3328 55.5073 41.2829 55.3948 41.2329 55.195C41.2079 54.9701 41.1704 54.8077 41.1205 54.7078C41.1205 54.6828 41.0955 54.5454 41.0455 54.2955C41.0205 54.0457 40.983 53.8708 40.9331 53.7709C40.4584 52.6466 39.9462 51.4973 39.3965 50.3231C38.8469 49.1238 38.3347 47.9246 37.86 46.7253C37.5852 46.0008 37.3353 45.2263 37.1105 44.4018C36.9106 43.5523 36.6358 42.7528 36.286 42.0033C36.236 41.9783 36.1486 41.8784 36.0237 41.7035C35.8988 41.5036 35.7738 41.3038 35.6489 41.1039C35.524 40.879 35.3991 40.6792 35.2742 40.5043C35.1742 40.3044 35.1118 40.1795 35.0868 40.1295C34.3622 38.8553 33.6877 37.5436 33.0631 36.1945C32.4384 34.8453 31.8513 33.4837 31.3017 32.1096C31.2517 32.0596 31.1892 31.9847 31.1143 31.8847C31.0643 31.7848 31.0393 31.7223 31.0393 31.6973C30.2398 30.3232 29.5028 28.9491 28.8282 27.5749C28.1786 26.1758 27.4916 24.7767 26.767 23.3776H26.6921H26.5047C26.4797 23.4026 26.4048 23.4775 26.2798 23.6025C26.1549 23.7024 26.0925 23.7773 26.0925 23.8273V26.9753C26.0675 27.0003 26.03 27.1127 25.98 27.3126C25.9301 27.5125 25.8676 27.7248 25.7927 27.9497C25.7427 28.1746 25.6927 28.3994 25.6427 28.6243C25.5928 28.8242 25.5678 28.9616 25.5678 29.0365C25.5178 29.5112 25.4803 29.9984 25.4554 30.4981C25.4554 30.9728 25.4554 31.4475 25.4554 31.9222C25.4554 32.6217 25.4429 33.3338 25.4179 34.0583C25.4179 34.7579 25.3804 35.4575 25.3055 36.157C25.3055 36.157 25.293 36.2195 25.268 36.3444C25.243 36.4443 25.218 36.5693 25.193 36.7192C25.193 36.8441 25.1805 36.9815 25.1556 37.1314C25.1306 37.2563 25.1181 37.3313 25.1181 37.3563C25.1181 38.1058 25.193 38.9053 25.3429 39.7547C25.4928 40.5792 25.5678 41.3912 25.5678 42.1907V42.2656C25.5678 42.3156 25.5428 42.4405 25.4928 42.6404C25.4429 42.8153 25.3804 42.9152 25.3055 42.9402V46.7253C25.3055 47.9745 25.3429 49.2113 25.4179 50.4355C25.5178 51.6347 25.5678 52.834 25.5678 54.0332V54.333C25.5678 54.433 25.5553 54.7203 25.5303 55.195C25.5053 55.6697 25.4679 56.1943 25.4179 56.769C25.3929 57.3186 25.3679 57.8433 25.3429 58.343C25.318 58.8177 25.3055 59.1175 25.3055 59.2424V59.5047C25.3055 59.8295 25.3429 60.2168 25.4179 60.6665C25.4928 61.1162 25.6053 61.5659 25.7552 62.0157C25.9051 62.4654 26.105 62.8901 26.3548 63.2898C26.6046 63.6896 26.9169 63.9769 27.2917 64.1518C27.3167 64.2018 27.4291 64.2642 27.629 64.3392C27.8289 64.4141 28.0412 64.5016 28.2661 64.6015C28.5159 64.6765 28.7408 64.7514 28.9407 64.8264C29.1405 64.8763 29.253 64.9138 29.2779 64.9388C29.7027 65.0887 30.1399 65.1762 30.5896 65.2011C31.0643 65.2011 31.514 65.2261 31.9388 65.2761C32.3635 65.3011 32.7757 65.3885 33.1755 65.5384C33.5752 65.6883 33.9375 65.9632 34.2623 66.3629V66.4379C34.2623 66.8626 34.0749 67.1499 33.7001 67.2998C33.3504 67.4747 33.0131 67.5621 32.6883 67.5621H31.9388C30.1649 67.4372 28.4035 67.3123 26.6546 67.1874C24.9307 67.0625 23.2068 67 21.4829 67Z" fill="white"/>
<path d="M72.675 119.785C72.675 119.21 72.8874 118.723 73.3121 118.323C73.7618 117.898 74.2615 117.686 74.8112 117.686C74.8361 117.686 74.8986 117.698 74.9985 117.723C75.0985 117.748 75.2109 117.773 75.3358 117.798C75.4608 117.823 75.5857 117.848 75.7106 117.873C75.8355 117.898 75.9355 117.923 76.0104 117.948C76.0604 117.948 76.1728 117.998 76.3477 118.098C76.5226 118.173 76.635 118.211 76.685 118.211H76.8349H76.8724C77.3471 118.086 77.8218 117.986 78.2965 117.911C78.7961 117.811 79.2459 117.673 79.6456 117.499C80.0454 117.299 80.3577 117.024 80.5825 116.674C80.8324 116.324 80.9448 115.812 80.9198 115.138L80.8074 108.129L80.7324 107.492V101.908C80.5076 101.459 80.3577 101.121 80.2827 100.897C80.2327 100.647 80.2078 100.347 80.2078 99.9971V99.5099C80.2327 99.41 80.2827 99.2351 80.3577 98.9853C80.4326 98.7104 80.5076 98.4356 80.5825 98.1608C80.6825 97.8859 80.7574 97.6361 80.8074 97.4112C80.8823 97.1614 80.9198 97.024 80.9198 96.999C80.9198 96.949 80.8948 96.8616 80.8448 96.7367C80.7949 96.6118 80.7449 96.4868 80.6949 96.3619C80.645 96.212 80.5825 96.0871 80.5076 95.9871C80.4576 95.8622 80.4326 95.7998 80.4326 95.7998C80.4326 95.7498 80.4076 95.6124 80.3577 95.3875C80.3077 95.1627 80.2577 94.9878 80.2078 94.8629C80.2078 94.8379 80.1953 94.7754 80.1703 94.6755C80.1453 94.5506 80.1203 94.4256 80.0953 94.3007C80.0703 94.1508 80.0454 94.0134 80.0204 93.8885C79.9954 93.7636 79.9829 93.6886 79.9829 93.6636C79.9829 93.6386 79.9454 93.5887 79.8705 93.5137C79.8205 93.4138 79.7455 93.3138 79.6456 93.2139C79.5707 93.114 79.4957 93.0265 79.4207 92.9516C79.3458 92.8516 79.2958 92.7892 79.2708 92.7642C79.021 92.3894 78.8586 91.9897 78.7837 91.5649C78.7087 91.1402 78.5588 90.7405 78.3339 90.3657C78.209 90.2658 78.0091 90.0909 77.7343 89.841C77.4595 89.5662 77.1722 89.2664 76.8724 88.9416C76.5726 88.6168 76.2852 88.317 76.0104 88.0422C75.7606 87.7424 75.5857 87.5175 75.4857 87.3676C75.061 86.8179 74.6738 86.1809 74.324 85.4563C73.9992 84.7068 73.6119 84.0197 73.1622 83.3951C72.8124 82.8205 72.4252 82.2833 72.0004 81.7836C71.6007 81.259 71.2384 80.7218 70.9136 80.1722C70.8637 80.0972 70.7887 79.9723 70.6888 79.7974C70.6138 79.6225 70.5264 79.4351 70.4264 79.2352C70.3515 79.0354 70.264 78.848 70.1641 78.6731C70.0892 78.4982 70.0267 78.3733 69.9767 78.2983C69.577 77.4239 69.0273 76.6119 68.3278 75.8624C67.6532 75.0879 67.0286 74.3383 66.454 73.6138C66.404 73.5389 66.2791 73.3515 66.0792 73.0517C65.8793 72.7518 65.6545 72.4271 65.4046 72.0773C65.1798 71.7275 64.9674 71.4027 64.7675 71.1029C64.5676 70.8031 64.4302 70.6157 64.3553 70.5407C64.3303 70.5158 64.3053 70.5033 64.2803 70.5033C64.2553 70.4783 64.2304 70.4533 64.2054 70.4283C64.1554 70.4033 64.1179 70.3784 64.0929 70.3534C64.043 70.3534 63.968 70.3159 63.8681 70.2409C63.7931 70.191 63.7307 70.141 63.6807 70.091C63.6307 70.0411 63.5308 69.9536 63.3809 69.8287C63.256 69.6788 63.1061 69.5289 62.9312 69.379C62.7813 69.2291 62.6314 69.0917 62.4815 68.9667C62.3565 68.8418 62.2691 68.7544 62.2191 68.7044C61.9443 68.4546 61.5945 68.3047 61.1698 68.2547C60.7451 68.1797 60.3328 68.1048 59.9331 68.0298C59.5333 67.9299 59.196 67.78 58.9212 67.5801C58.6464 67.3553 58.509 66.9805 58.509 66.4558C58.509 66.4059 58.4965 66.3309 58.4715 66.231C58.4465 66.131 58.434 66.0311 58.434 65.9312C58.434 65.6813 58.5465 65.5189 58.7713 65.444C58.8962 65.419 59.1336 65.3815 59.4834 65.3315C59.8331 65.2816 60.2079 65.2316 60.6077 65.1816C61.0074 65.1317 61.3822 65.0817 61.7319 65.0317C62.0817 64.9818 62.3316 64.9568 62.4815 64.9568H62.8562H63.156C63.206 64.9568 63.3184 64.9943 63.4933 65.0692C63.6932 65.1442 63.8181 65.1816 63.8681 65.1816H66.9411C67.4158 65.2316 67.8781 65.3191 68.3278 65.444C68.8025 65.5689 69.3022 65.6314 69.8268 65.6314C70.2516 65.6314 70.6513 65.6189 71.0261 65.5939C71.4008 65.5439 71.8006 65.4939 72.2253 65.444C72.2753 65.444 72.3627 65.4065 72.4876 65.3315C72.5626 65.2816 72.625 65.2316 72.675 65.1816H73.1247C73.9242 65.1816 74.6613 65.2691 75.3358 65.444C76.0354 65.6189 76.7849 65.7063 77.5844 65.7063C77.7093 65.7063 77.8343 65.6938 77.9592 65.6688C78.0841 65.6438 78.209 65.6314 78.3339 65.6314C78.5338 65.7563 78.6337 65.9187 78.6337 66.1185C78.6337 66.5183 78.4214 66.8181 77.9967 67.018C77.5719 67.1929 77.0972 67.3802 76.5726 67.5801C76.0729 67.755 75.6107 67.9799 75.1859 68.2547C74.7612 68.5045 74.5488 68.8918 74.5488 69.4165V70.091C74.5988 70.091 74.7362 70.2534 74.9611 70.5782C75.1859 70.903 75.3608 71.1404 75.4857 71.2903C75.7356 71.5651 75.9479 71.8524 76.1228 72.1522C76.3227 72.452 76.5101 72.7643 76.685 73.0891C76.8599 73.4139 77.0348 73.7387 77.2096 74.0635C77.3845 74.3883 77.5969 74.7006 77.8467 75.0004C77.8967 75.0504 77.9842 75.1503 78.1091 75.3002C78.259 75.4252 78.4089 75.5626 78.5588 75.7125C78.7337 75.8624 78.8836 76.0123 79.0085 76.1622C79.1584 76.2871 79.2459 76.3621 79.2708 76.387C79.3208 76.387 79.3583 76.4995 79.3833 76.7243C79.4332 76.9492 79.4582 77.0866 79.4582 77.1366C79.9079 77.8361 80.3327 78.4982 80.7324 79.1228C81.1322 79.7224 81.5694 80.372 82.0441 81.0716C82.119 81.1216 82.2065 81.234 82.3064 81.4089C82.4064 81.5838 82.4938 81.6962 82.5688 81.7462C82.5688 81.7711 82.5937 81.8586 82.6437 82.0085C82.6687 82.0834 82.7062 82.1459 82.7561 82.1959C82.7811 82.2458 82.8436 82.3208 82.9435 82.4207C83.0435 82.5207 83.1434 82.6206 83.2433 82.7205C83.3433 82.8205 83.4307 82.9079 83.5057 82.9829C83.6056 83.0578 83.6681 83.1078 83.693 83.1328C83.718 83.1827 83.7555 83.2702 83.8055 83.3951C83.8554 83.52 83.9054 83.645 83.9554 83.7699C84.0053 83.8948 84.0553 84.0197 84.1053 84.1446C84.1553 84.2446 84.1802 84.307 84.1802 84.332C84.2802 84.5819 84.48 84.9566 84.7799 85.4563C85.0797 85.956 85.392 86.4557 85.7168 86.9554C86.0665 87.4301 86.4038 87.8548 86.7286 88.2296C87.0534 88.5793 87.3033 88.7542 87.4782 88.7542C87.778 88.7542 88.1277 88.7167 88.5275 88.6418C88.9272 88.5668 89.2021 88.367 89.352 88.0422C90.3263 86.3682 91.2133 84.6568 92.0128 82.9079C92.8123 81.134 93.6243 79.3602 94.4487 77.5863C94.6486 77.1366 94.9234 76.6494 95.2732 76.1247C95.623 75.6 95.9603 75.0629 96.2851 74.5132C96.6349 73.9636 96.9222 73.4139 97.147 72.8643C97.3969 72.3146 97.5218 71.79 97.5218 71.2903C97.5218 70.9405 97.4219 70.6282 97.222 70.3534C97.0471 70.0785 96.8097 69.8412 96.5099 69.6413C96.2351 69.4414 95.9353 69.2666 95.6105 69.1166C95.2857 68.9667 94.9859 68.8293 94.7111 68.7044C94.6861 68.6794 94.5986 68.6544 94.4487 68.6295C94.3238 68.6045 94.1739 68.5795 93.999 68.5545C93.8491 68.5295 93.6992 68.517 93.5493 68.517C93.4244 68.492 93.3494 68.4796 93.3245 68.4796C93.0996 68.4296 92.7373 68.3671 92.2376 68.2922C91.738 68.1922 91.2258 68.0798 90.7011 67.9549C90.2014 67.805 89.7517 67.6426 89.352 67.4677C88.9772 67.2678 88.7898 67.0555 88.7898 66.8306C88.7898 66.7806 88.8023 66.7307 88.8273 66.6807C88.8273 66.6557 88.8398 66.6182 88.8648 66.5683L90.064 65.444H92.3875H96.0977C96.7973 65.4939 97.4718 65.5814 98.1214 65.7063C98.796 65.8312 99.4581 65.8937 100.108 65.8937H100.932C101.007 65.8937 101.169 65.8812 101.419 65.8562C101.694 65.8312 101.981 65.8062 102.281 65.7813C102.581 65.7313 102.843 65.6938 103.068 65.6688C103.318 65.6438 103.468 65.6314 103.518 65.6314H106.366C107.066 65.5814 107.728 65.4939 108.352 65.369C109.002 65.2441 109.664 65.1816 110.339 65.1816H111.276C111.475 65.3565 111.638 65.5439 111.763 65.7438C111.888 65.9437 111.95 66.206 111.95 66.5308C111.95 67.0305 111.8 67.3802 111.5 67.5801C111.226 67.78 110.888 67.9174 110.489 67.9924C110.114 68.0673 109.714 68.1048 109.289 68.1048C108.865 68.1048 108.515 68.1423 108.24 68.2172C108.215 68.2172 108.115 68.2547 107.94 68.3296C107.765 68.3796 107.565 68.4421 107.341 68.517C107.116 68.592 106.891 68.6669 106.666 68.7419C106.441 68.8168 106.254 68.8668 106.104 68.8918C106.054 68.9667 105.879 69.0667 105.579 69.1916C105.279 69.3165 105.08 69.3915 104.98 69.4165C104.405 69.6413 103.955 70.0161 103.63 70.5407C103.331 71.0654 102.981 71.5526 102.581 72.0023C102.556 72.0273 102.481 72.1148 102.356 72.2647C102.231 72.3896 102.081 72.527 101.907 72.6769C101.757 72.8268 101.607 72.9767 101.457 73.1266C101.332 73.2765 101.244 73.364 101.194 73.3889C100.695 73.9886 100.27 74.6382 99.9203 75.3377C99.5705 76.0373 99.1583 76.7118 98.6836 77.3614C98.6336 77.4114 98.4962 77.5488 98.2713 77.7737C98.0714 77.9985 97.8466 78.2484 97.5967 78.5232C97.3719 78.773 97.147 79.0104 96.9222 79.2352C96.7223 79.4601 96.6099 79.61 96.5849 79.685C96.46 79.8349 96.2726 80.1222 96.0227 80.5469C95.7729 80.9467 95.5106 81.3839 95.2357 81.8586C94.9609 82.3333 94.6986 82.783 94.4487 83.2077C94.2239 83.6075 94.074 83.8948 93.999 84.0697C93.6742 84.3695 93.3994 84.6443 93.1745 84.8942C92.9747 85.144 92.7873 85.3939 92.6124 85.6437C92.4625 85.8686 92.2876 86.1059 92.0877 86.3557C91.9128 86.5806 91.7005 86.8304 91.4506 87.1053C91.4007 87.1552 91.3007 87.2552 91.1508 87.4051C91.0259 87.53 90.876 87.6799 90.7011 87.8548C90.5512 88.0047 90.4013 88.1546 90.2514 88.3045C90.1265 88.4294 90.064 88.5169 90.064 88.5668C89.9891 88.7167 89.9266 89.0166 89.8766 89.4663C89.8267 89.916 89.8017 90.2783 89.8017 90.5531V90.8904V103.295C89.8017 103.395 89.7892 103.695 89.7642 104.194C89.7392 104.694 89.7017 105.231 89.6518 105.806C89.6268 106.381 89.6018 106.93 89.5768 107.455C89.5518 107.955 89.5393 108.267 89.5393 108.392V108.504V108.579C89.5393 108.679 89.5768 108.854 89.6518 109.104C89.7517 109.329 89.8017 109.466 89.8017 109.516C89.8017 109.616 89.7517 109.828 89.6518 110.153C89.5768 110.478 89.5393 110.665 89.5393 110.715V111.203V111.84C89.5393 111.965 89.5518 112.214 89.5768 112.589C89.6018 112.939 89.6268 113.326 89.6518 113.751C89.7017 114.176 89.7392 114.575 89.7642 114.95C89.7892 115.3 89.8017 115.525 89.8017 115.625V116.637V117.011C89.8017 117.061 89.8516 117.161 89.9516 117.311C90.0765 117.436 90.1764 117.499 90.2514 117.499C90.2764 117.524 90.3513 117.549 90.4763 117.573C90.6012 117.598 90.7386 117.623 90.8885 117.648C91.0384 117.648 91.1883 117.661 91.3382 117.686C91.4881 117.686 91.6005 117.686 91.6755 117.686C91.8004 117.736 92.0503 117.773 92.425 117.798C92.7998 117.823 93.1995 117.848 93.6243 117.873C94.049 117.898 94.4487 117.923 94.8235 117.948C95.2233 117.948 95.4981 117.948 95.648 117.948C96.0227 118.073 96.3101 118.311 96.5099 118.66C96.7348 118.985 96.8472 119.36 96.8472 119.785C96.8472 120.084 96.7598 120.322 96.5849 120.497C96.41 120.647 96.1851 120.759 95.9103 120.834C95.6605 120.909 95.3856 120.946 95.0858 120.946C94.811 120.971 94.5612 120.984 94.3363 120.984C94.0365 120.984 93.7742 120.959 93.5493 120.909C93.3494 120.859 93.1621 120.809 92.9872 120.759C92.8373 120.709 92.6749 120.659 92.5 120.609C92.3501 120.559 92.1627 120.534 91.9378 120.534C91.8879 120.534 91.7754 120.547 91.6005 120.572C91.4506 120.597 91.2757 120.622 91.0759 120.647C90.901 120.697 90.7261 120.734 90.5512 120.759C90.4013 120.784 90.3014 120.796 90.2514 120.796H89.8766C89.6518 120.796 89.4144 120.746 89.1646 120.647C88.9147 120.572 88.6649 120.534 88.4151 120.534C86.3164 120.534 84.2177 120.647 82.119 120.871C80.0454 121.096 77.9717 121.209 75.898 121.209H74.7362C74.2115 121.209 73.7368 121.134 73.3121 120.984C72.8874 120.834 72.675 120.434 72.675 119.785Z" fill="white"/>
</svg>
